<mxfile host="app.diagrams.net" modified="2023-09-30T14:15:07.848Z" agent="Mozilla/5.0 (Windows NT 10.0; Win64; x64) AppleWebKit/537.36 (KHTML, like Gecko) Chrome/117.0.0.0 Safari/537.36" version="21.2.7" etag="FOu-EEUd9czwfanyucOS" type="github">
  <diagram name="Page-1" id="sUPDDs3BoAxkP2QtietK">
    <mxGraphModel>
      <root>
        <mxCell id="0" />
        <mxCell id="1" parent="0" />
      </root>
    </mxGraphModel>
  </diagram>
</mxfile>
